<?xml version="1.0"?>
<svg xmlns="http://www.w3.org/2000/svg" height="512px" viewBox="0 0 340 340.67836" width="512px" class=""><g transform="matrix(0.979708 0 0 0.979708 3.44963 3.45652)"><path d="m301.527344 164.800781h-170.484375c-3.140625 0-5.683594 2.542969-5.683594 5.683594v17.046875c0 3.140625 2.546875 5.683594 5.683594 5.683594h170.484375c3.136718 0 5.679687-2.546875 5.679687-5.683594v-17.046875c0-3.140625-2.542969-5.683594-5.679687-5.683594zm-5.683594 17.046875h-159.117188v-5.683594h159.117188zm0 0" data-original="#000000" class="active-path" data-old_color="#ff7800" fill="#ff7800"/><path d="m153.773438 198.898438c-9.414063 0-17.046876 7.632812-17.046876 17.046874 0 9.414063 7.632813 17.046876 17.046876 17.046876 9.417968 0 17.046874-7.632813 17.046874-17.046876 0-9.414062-7.632812-17.046874-17.046874-17.046874zm0 22.730468c-3.136719 0-5.679688-2.546875-5.679688-5.683594 0-3.136718 2.542969-5.683593 5.679688-5.683593 3.140624 0 5.683593 2.546875 5.683593 5.683593 0 3.136719-2.542969 5.683594-5.683593 5.683594zm0 0" data-original="#000000" class="active-path" data-old_color="#ff7800" fill="#ff7800"/><path d="m193.554688 198.898438c-9.417969 0-17.050782 7.632812-17.050782 17.046874 0 9.414063 7.636719 17.046876 17.050782 17.046876 9.414062 0 17.046874-7.632813 17.046874-17.046876 0-9.414062-7.632812-17.046874-17.046874-17.046874zm0 22.730468c-3.140626 0-5.683594-2.546875-5.683594-5.683594 0-3.136718 2.542968-5.683593 5.683594-5.683593 3.136718 0 5.679687 2.546875 5.679687 5.683593 0 3.136719-2.542969 5.683594-5.679687 5.683594zm0 0" data-original="#000000" class="active-path" data-old_color="#ff7800" fill="#ff7800"/><path d="m233.332031 198.898438c-9.414062 0-17.046875 7.632812-17.046875 17.046874 0 9.414063 7.632813 17.046876 17.046875 17.046876 9.417969 0 17.046875-7.632813 17.046875-17.046876 0-9.414062-7.632812-17.046874-17.046875-17.046874zm0 22.730468c-3.136719 0-5.679687-2.546875-5.679687-5.683594 0-3.136718 2.542968-5.683593 5.679687-5.683593 3.140625 0 5.683594 2.546875 5.683594 5.683593 0 3.136719-2.542969 5.683594-5.683594 5.683594zm0 0" data-original="#000000" class="active-path" data-old_color="#ff7800" fill="#ff7800"/><path d="m273.113281 198.898438c-9.417969 0-17.050781 7.632812-17.050781 17.046874 0 9.414063 7.636719 17.046876 17.050781 17.046876 9.414063 0 17.046875-7.632813 17.046875-17.046876 0-9.414062-7.632812-17.046874-17.046875-17.046874zm0 22.730468c-3.140625 0-5.683593-2.546875-5.683593-5.683594 0-3.136718 2.542968-5.683593 5.683593-5.683593 3.136719 0 5.679688 2.546875 5.679688 5.683593 0 3.136719-2.542969 5.683594-5.679688 5.683594zm0 0" data-original="#000000" class="active-path" data-old_color="#ff7800" fill="#ff7800"/><path d="m153.773438 238.675781c-9.414063 0-17.046876 7.632813-17.046876 17.046875 0 9.417969 7.632813 17.050782 17.046876 17.050782 9.417968 0 17.046874-7.632813 17.046874-17.050782 0-9.414062-7.632812-17.046875-17.046874-17.046875zm0 22.730469c-3.136719 0-5.679688-2.542969-5.679688-5.679688 0-3.140624 2.542969-5.683593 5.679688-5.683593 3.140624 0 5.683593 2.542969 5.683593 5.683593 0 3.136719-2.542969 5.679688-5.683593 5.679688zm0 0" data-original="#000000" class="active-path" data-old_color="#ff7800" fill="#ff7800"/><path d="m193.554688 238.675781c-9.417969 0-17.050782 7.632813-17.050782 17.046875 0 9.417969 7.636719 17.050782 17.050782 17.050782 9.414062 0 17.046874-7.632813 17.046874-17.050782 0-9.414062-7.632812-17.046875-17.046874-17.046875zm0 22.730469c-3.140626 0-5.683594-2.542969-5.683594-5.679688 0-3.140624 2.542968-5.683593 5.683594-5.683593 3.136718 0 5.679687 2.542969 5.679687 5.683593 0 3.136719-2.542969 5.679688-5.679687 5.679688zm0 0" data-original="#000000" class="active-path" data-old_color="#ff7800" fill="#ff7800"/><path d="m233.332031 238.675781c-9.414062 0-17.046875 7.632813-17.046875 17.046875 0 9.417969 7.632813 17.050782 17.046875 17.050782 9.417969 0 17.046875-7.632813 17.046875-17.050782 0-9.414062-7.632812-17.046875-17.046875-17.046875zm0 22.730469c-3.136719 0-5.679687-2.542969-5.679687-5.679688 0-3.140624 2.542968-5.683593 5.679687-5.683593 3.140625 0 5.683594 2.542969 5.683594 5.683593 0 3.136719-2.542969 5.679688-5.683594 5.679688zm0 0" data-original="#000000" class="active-path" data-old_color="#ff7800" fill="#ff7800"/><path d="m273.113281 238.675781c-9.417969 0-17.050781 7.632813-17.050781 17.046875 0 9.417969 7.636719 17.050782 17.050781 17.050782 9.414063 0 17.046875-7.632813 17.046875-17.050782 0-9.414062-7.632812-17.046875-17.046875-17.046875zm0 22.730469c-3.140625 0-5.683593-2.542969-5.683593-5.679688 0-3.140624 2.542968-5.683593 5.683593-5.683593 3.136719 0 5.679688 2.542969 5.679688 5.683593 0 3.136719-2.542969 5.679688-5.679688 5.679688zm0 0" data-original="#000000" class="active-path" data-old_color="#ff7800" fill="#ff7800"/><path d="m335.621094 79.558594c3.140625 0 5.683594-2.542969 5.683594-5.683594v-45.460938c.015624-15.675781-12.679688-28.398437-28.355469-28.414062-.019531 0-.039063 0-.058594 0h-147.75c-15.683594.0195312-28.394531 12.730469-28.414063 28.414062v85.242188h-28.414062v-17.050781c0-9.414063-7.632812-17.046875-17.046875-17.046875h-45.464844c-9.414062 0-17.046875 7.632812-17.046875 17.046875v17.050781h-11.367187c-9.414063 0-17.046875 7.632812-17.046875 17.046875v170.484375c0 9.414062 7.632812 17.046875 17.046875 17.046875h.570312c3.121094 15.378906 18.121094 25.3125 33.5 22.191406 11.179688-2.269531 19.917969-11.011719 22.1875-22.191406h68.761719v17.046875c0 3.140625 2.546875 5.683594 5.683594 5.683594h136.386718c3.136719 0 5.679688-2.546875 5.679688-5.683594v-17.046875h34.097656c9.417969 0 17.050782-7.632813 17.050782-17.046875v-170.484375c0-9.414063-7.632813-17.046875-17.050782-17.046875h-28.414062v-34.097656zm-5.679688-51.144532v39.777344h-34.097656v-39.777344c0-9.417968 7.632812-17.046874 17.046875-17.046874 9.417969 0 17.050781 7.632812 17.050781 17.046874zm-181.851562 0c0-9.417968 7.632812-17.046874 17.050781-17.046874h125.019531c-3.699218 4.910156-5.695312 10.898437-5.683594 17.046874v113.65625h-136.386718zm-107.972656 68.191407c0-3.136719 2.546874-5.679688 5.683593-5.679688h45.460938c3.140625 0 5.683593 2.542969 5.683593 5.679688v181.851562c0 3.136719-2.542968 5.679688-5.683593 5.679688h-45.460938c-3.140625 0-5.683593-2.542969-5.683593-5.679688zm-28.414063 204.582031v-170.484375c0-3.136719 2.546875-5.683594 5.683594-5.683594h11.367187v153.4375c0 9.414063 7.632813 17.046875 17.046875 17.046875h17.046875v11.367188h-45.460937c-3.136719-.003906-5.683594-2.546875-5.683594-5.683594zm34.097656 28.414062c-7.199219-.03125-13.601562-4.578124-16.003906-11.367187h32.007813c-2.398438 6.789063-8.804688 11.335937-16.003907 11.367187zm232.992188 0h-125.019531v-34.097656h125.023437v34.097656zm45.464843-204.582031c3.136719 0 5.683594 2.546875 5.683594 5.683594v170.484375c0 3.136719-2.546875 5.679688-5.683594 5.679688h-34.097656v-17.046876c0-3.136718-2.542968-5.683593-5.683594-5.683593h-136.386718c-3.136719 0-5.679688 2.546875-5.679688 5.683593v17.046876h-68.195312v-11.363282h17.046875c9.417969 0 17.050781-7.632812 17.050781-17.046875v-153.4375h28.414062v17.050781h-11.367187v11.363282h181.847656v-11.363282h-11.363281v-17.050781zm0 0" data-original="#000000" class="active-path" data-old_color="#ff7800" fill="#ff7800"/><path d="m170.820312 34.097656h11.367188v11.363282h-11.367188zm0 0" data-original="#000000" class="active-path" data-old_color="#ff7800" fill="#ff7800"/><path d="m193.554688 34.097656h68.191406v11.363282h-68.191406zm0 0" data-original="#000000" class="active-path" data-old_color="#ff7800" fill="#ff7800"/><path d="m170.820312 56.828125h11.367188v11.363281h-11.367188zm0 0" data-original="#000000" class="active-path" data-old_color="#ff7800" fill="#ff7800"/><path d="m193.554688 56.828125h68.191406v11.363281h-68.191406zm0 0" data-original="#000000" class="active-path" data-old_color="#ff7800" fill="#ff7800"/><path d="m170.820312 79.558594h11.367188v11.367187h-11.367188zm0 0" data-original="#000000" class="active-path" data-old_color="#ff7800" fill="#ff7800"/><path d="m193.554688 79.558594h68.191406v11.367187h-68.191406zm0 0" data-original="#000000" class="active-path" data-old_color="#ff7800" fill="#ff7800"/><path d="m170.820312 102.289062h11.367188v11.367188h-11.367188zm0 0" data-original="#000000" class="active-path" data-old_color="#ff7800" fill="#ff7800"/><path d="m193.554688 102.289062h68.191406v11.367188h-68.191406zm0 0" data-original="#000000" class="active-path" data-old_color="#ff7800" fill="#ff7800"/><path d="m176.503906 306.867188h79.558594v11.367187h-79.558594zm0 0" data-original="#000000" class="active-path" data-old_color="#ff7800" fill="#ff7800"/></g> </svg>
